<?xml version="1.0" encoding="UTF-8"?> <svg xmlns="http://www.w3.org/2000/svg" width="125" height="20" viewBox="0 0 125 20" fill="none"><path d="M7.21658 20C8.94541 20 10.3992 19.5538 11.578 18.6614C12.7567 17.769 13.4902 16.7323 13.8045 15.5643L10.504 14.6457C10.3468 15.2493 9.9539 15.7612 9.35143 16.1811C8.73586 16.6142 8.01551 16.8241 7.17728 16.8241C6.09021 16.8241 5.1996 16.4304 4.51855 15.6299C3.82439 14.8425 3.48386 13.8976 3.48386 12.7953C3.48386 11.6929 3.82439 10.748 4.50545 9.96063C5.1865 9.18635 6.07712 8.79265 7.17728 8.79265C8.01551 8.79265 8.74895 9.01575 9.35143 9.46194C9.9539 9.90814 10.3468 10.4462 10.504 11.0499L13.8045 10.105C13.5032 8.96325 12.7567 7.93963 11.5649 7.021C10.373 6.10236 8.90612 5.64304 7.17728 5.64304C5.12102 5.64304 3.40528 6.32546 2.04317 7.69029C0.681056 9.05512 0 10.748 0 12.7953C0 14.8425 0.681056 16.5486 2.04317 17.9265C3.40528 19.3176 5.13412 20 7.21658 20Z" fill="black"></path><path d="M24.1644 5.64304C22.3308 5.64304 20.877 6.35171 19.7899 7.74278V0H16.2537V19.6194H19.7899V12.9003C19.7899 11.706 20.0781 10.748 20.6805 10.0262C21.283 9.31758 22.0688 8.95013 23.0642 8.95013C24.0072 8.95013 24.7276 9.25197 25.2253 9.85564C25.7099 10.4593 25.9587 11.2861 25.9587 12.336V19.6194H29.5081V11.6667C29.5081 9.80315 29.0497 8.33333 28.1329 7.25722C27.2161 6.1811 25.8932 5.64304 24.1644 5.64304Z" fill="black"></path><path d="M39.4096 20C41.0467 20 42.435 19.6194 43.5745 18.832C44.714 18.0577 45.5129 17.1522 45.9582 16.1286L42.7625 15.1837C42.1338 16.3911 41.0336 16.9816 39.462 16.9816C38.2832 16.9816 37.3533 16.706 36.6985 16.1417C36.0305 15.5774 35.6376 14.8294 35.5197 13.8976H46.063C46.1154 13.6089 46.1416 13.189 46.1416 12.6378C46.1416 10.6299 45.5129 8.96325 44.2556 7.6378C42.9982 6.31234 41.2956 5.64304 39.1345 5.64304C37.0259 5.64304 35.3101 6.32546 34.0004 7.69029C32.6907 9.05512 32.0358 10.7612 32.0358 12.8215C32.0358 14.9738 32.7169 16.7192 34.079 18.0315C35.4411 19.3438 37.2223 20 39.4096 20ZM35.5197 11.6667C35.6245 10.853 35.9912 10.1444 36.6461 9.54068C37.3009 8.95013 38.1129 8.64829 39.1083 8.64829C40.1299 8.64829 40.9551 8.93701 41.5968 9.51444C42.2255 10.0919 42.5922 10.8136 42.6839 11.6667H35.5197Z" fill="black"></path><path d="M55.2048 20C56.9337 20 58.3875 19.5538 59.5662 18.6614C60.745 17.769 61.4784 16.7323 61.7928 15.5643L58.4922 14.6457C58.3351 15.2493 57.9422 15.7612 57.3397 16.1811C56.7241 16.6142 56.0038 16.8241 55.1656 16.8241C54.0785 16.8241 53.1879 16.4304 52.5068 15.6299C51.8127 14.8425 51.4721 13.8976 51.4721 12.7953C51.4721 11.6929 51.8127 10.748 52.4937 9.96063C53.1748 9.18635 54.0654 8.79265 55.1656 8.79265C56.0038 8.79265 56.7372 9.01575 57.3397 9.46194C57.9422 9.90814 58.3351 10.4462 58.4922 11.0499L61.7928 10.105C61.4915 8.96325 60.745 7.93963 59.5531 7.021C58.3613 6.10236 56.8944 5.64304 55.1656 5.64304C53.1093 5.64304 51.3935 6.32546 50.0314 7.69029C48.6693 9.05512 47.9883 10.748 47.9883 12.7953C47.9883 14.8425 48.6693 16.5486 50.0314 17.9265C51.3935 19.3176 53.1224 20 55.2048 20Z" fill="black"></path><path d="M73.3052 19.6194H77.3392L71.5895 11.8766L76.8022 6.02362H72.6635L67.7782 11.6404V0H64.2419V19.6194H67.7782V16.1549L69.3629 14.3832L73.3052 19.6194Z" fill="black"></path><path d="M87.1359 5.64304C85.2761 5.64304 83.8092 6.32546 82.7352 7.66404V0H79.199V19.6194H82.7352V17.9528C83.8223 19.3176 85.2892 20 87.1359 20C89.0088 20 90.5936 19.3176 91.8771 17.9396C93.1606 16.5748 93.8155 14.8688 93.8155 12.8215C93.8155 10.7612 93.1737 9.05512 91.8902 7.69029C90.6067 6.32546 89.0219 5.64304 87.1359 5.64304ZM86.5203 16.8241C85.4202 16.8241 84.5033 16.4436 83.7699 15.6824C83.0234 14.9213 82.6566 13.9633 82.6566 12.7953C82.6566 11.6535 83.0234 10.7087 83.7699 9.94751C84.5033 9.19948 85.4202 8.8189 86.5203 8.8189C87.6205 8.8189 88.5373 9.19948 89.2576 9.93438C89.9649 10.6824 90.3316 11.6404 90.3316 12.7953C90.3316 13.9764 89.9649 14.9475 89.2576 15.6955C88.5373 16.4567 87.6205 16.8241 86.5203 16.8241Z" fill="black"></path><path d="M102.931 20C105.001 20 106.729 19.3176 108.105 17.9396C109.48 16.5748 110.174 14.8688 110.174 12.8215C110.174 10.7743 109.48 9.06824 108.118 7.70341C106.742 6.33858 105.014 5.64304 102.918 5.64304C100.823 5.64304 99.0937 6.33858 97.7185 7.70341C96.3433 9.06824 95.6622 10.7743 95.6622 12.8215C95.6622 14.8688 96.3433 16.5748 97.7185 17.9396C99.0937 19.3176 100.836 20 102.931 20ZM102.931 16.7717C101.805 16.7717 100.888 16.4042 100.181 15.6562C99.4735 14.9213 99.1199 13.9764 99.1199 12.8215C99.1199 11.6798 99.4735 10.7349 100.181 9.98688C100.888 9.25197 101.805 8.87139 102.931 8.87139C104.058 8.87139 104.961 9.25197 105.668 9.98688C106.376 10.7349 106.729 11.6798 106.729 12.8215C106.729 13.9764 106.376 14.9213 105.668 15.6562C104.961 16.4042 104.058 16.7717 102.931 16.7717Z" fill="black"></path><path d="M125 19.6194L119.931 12.7428L124.764 6.02362H120.757L117.757 10.1312L114.784 6.02362H110.763L115.609 12.7428L110.541 19.6194H114.562L117.757 15.2887L120.953 19.6194H125Z" fill="black"></path></svg> 