<?xml version="1.0" encoding="UTF-8" standalone="no"?>
<svg
   xmlns:dc="http://purl.org/dc/elements/1.1/"
   xmlns:cc="http://creativecommons.org/ns#"
   xmlns:rdf="http://www.w3.org/1999/02/22-rdf-syntax-ns#"
   xmlns:svg="http://www.w3.org/2000/svg"
   xmlns="http://www.w3.org/2000/svg"
   xmlns:sodipodi="http://sodipodi.sourceforge.net/DTD/sodipodi-0.dtd"
   xmlns:inkscape="http://www.inkscape.org/namespaces/inkscape"
   inkscape:version="1.0 (4035a4fb49, 2020-05-01)"
   sodipodi:docname="logo.svg"
   version="1.1"
   width="17"
   viewBox="0 0 17 20"
   height="20"
   enable-background="new 0 0 512 512"
   id="Capa_1">
  <metadata
     id="metadata41">
    <rdf:RDF>
      <cc:Work
         rdf:about="">
        <dc:format>image/svg+xml</dc:format>
        <dc:type
           rdf:resource="http://purl.org/dc/dcmitype/StillImage" />
        <dc:title></dc:title>
      </cc:Work>
    </rdf:RDF>
  </metadata>
  <defs
     id="defs39" />
  <sodipodi:namedview
     fit-margin-bottom="0"
     fit-margin-right="0"
     fit-margin-left="0"
     fit-margin-top="0"
     inkscape:current-layer="Capa_1"
     inkscape:window-maximized="1"
     inkscape:window-y="-8"
     inkscape:window-x="-8"
     inkscape:cy="265.97924"
     inkscape:cx="175"
     inkscape:zoom="1.1289062"
     showgrid="false"
     id="namedview37"
     inkscape:window-height="745"
     inkscape:window-width="1366"
     inkscape:pageshadow="2"
     inkscape:pageopacity="0"
     guidetolerance="10"
     gridtolerance="10"
     objecttolerance="10"
     borderopacity="1"
     bordercolor="#666666"
     pagecolor="#ffffff"
     inkscape:document-rotation="0" />
  <g
     transform="matrix(0.04857143,0,0,0.0390625,-3.9342858,0)"
     style="fill:#9ca2a7;fill-opacity:1"
     id="g34">
    <path
       style="fill:#9ca2a7;fill-opacity:1"
       id="path2"
       d="m 183.5,45 h 85 c 4.143,0 7.5,-3.357 7.5,-7.5 0,-4.143 -3.357,-7.5 -7.5,-7.5 h -85 c -4.143,0 -7.5,3.357 -7.5,7.5 0,4.143 3.357,7.5 7.5,7.5 z" />
    <path
       style="fill:#9ca2a7;fill-opacity:1"
       id="path4"
       d="m 183.5,75 h 85 c 4.143,0 7.5,-3.357 7.5,-7.5 0,-4.143 -3.357,-7.5 -7.5,-7.5 h -85 c -4.143,0 -7.5,3.357 -7.5,7.5 0,4.143 3.357,7.5 7.5,7.5 z" />
    <path
       style="fill:#9ca2a7;fill-opacity:1"
       id="path6"
       d="m 183.5,105 h 85 c 4.143,0 7.5,-3.357 7.5,-7.5 0,-4.143 -3.357,-7.5 -7.5,-7.5 h -85 c -4.143,0 -7.5,3.357 -7.5,7.5 0,4.143 3.357,7.5 7.5,7.5 z" />
    <path
       style="fill:#9ca2a7;fill-opacity:1"
       id="path8"
       d="m 341,257.5 v -89 c 0,-9.649 -7.851,-17.5 -17.5,-17.5 h -195 c -9.649,0 -17.5,7.851 -17.5,17.5 v 89 c 0,9.649 7.851,17.5 17.5,17.5 h 16.415 c 4.143,0 7.5,-3.357 7.5,-7.5 0,-4.143 -3.357,-7.5 -7.5,-7.5 H 128.5 c -1.379,0 -2.5,-1.121 -2.5,-2.5 v -89 c 0,-1.379 1.121,-2.5 2.5,-2.5 h 195 c 1.379,0 2.5,1.121 2.5,2.5 v 89 c 0,1.379 -1.121,2.5 -2.5,2.5 H 179.894 c -4.143,0 -7.5,3.357 -7.5,7.5 0,4.143 3.357,7.5 7.5,7.5 H 323.5 c 9.649,0 17.5,-7.851 17.5,-17.5 z" />
    <path
       style="fill:#9ca2a7;fill-opacity:1"
       id="path10"
       d="m 156,315.345 c 0,-5.79 -4.71,-10.5 -10.5,-10.5 h -24 c -5.79,0 -10.5,4.71 -10.5,10.5 v 24 c 0,5.79 4.71,10.5 10.5,10.5 h 24 c 5.79,0 10.5,-4.71 10.5,-10.5 z m -15,19.5 h -15 v -15 h 15 z" />
    <path
       style="fill:#9ca2a7;fill-opacity:1"
       id="path12"
       d="m 216,315.345 c 0,-5.79 -4.71,-10.5 -10.5,-10.5 h -24 c -5.79,0 -10.5,4.71 -10.5,10.5 v 24 c 0,5.79 4.71,10.5 10.5,10.5 h 24 c 5.79,0 10.5,-4.71 10.5,-10.5 z m -15,19.5 h -15 v -15 h 15 z" />
    <path
       style="fill:#9ca2a7;fill-opacity:1"
       id="path14"
       d="m 265.5,304.845 h -24 c -5.79,0 -10.5,4.71 -10.5,10.5 v 24 c 0,5.79 4.71,10.5 10.5,10.5 h 24 c 5.79,0 10.5,-4.71 10.5,-10.5 v -24 c 0,-5.79 -4.71,-10.5 -10.5,-10.5 z m -4.5,30 h -15 v -15 h 15 z" />
    <path
       style="fill:#9ca2a7;fill-opacity:1"
       id="path16"
       d="m 156,375.345 c 0,-5.79 -4.71,-10.5 -10.5,-10.5 h -24 c -5.79,0 -10.5,4.71 -10.5,10.5 v 24 c 0,5.79 4.71,10.5 10.5,10.5 h 24 c 5.79,0 10.5,-4.71 10.5,-10.5 z m -15,19.5 h -15 v -15 h 15 z" />
    <path
       style="fill:#9ca2a7;fill-opacity:1"
       id="path18"
       d="m 216,375.345 c 0,-5.79 -4.71,-10.5 -10.5,-10.5 h -24 c -5.79,0 -10.5,4.71 -10.5,10.5 v 24 c 0,5.79 4.71,10.5 10.5,10.5 h 24 c 5.79,0 10.5,-4.71 10.5,-10.5 z m -15,19.5 h -15 v -15 h 15 z" />
    <path
       style="fill:#9ca2a7;fill-opacity:1"
       id="path20"
       d="m 265.5,364.845 h -24 c -5.79,0 -10.5,4.71 -10.5,10.5 v 24 c 0,5.79 4.71,10.5 10.5,10.5 h 24 c 5.79,0 10.5,-4.71 10.5,-10.5 v -24 c 0,-5.79 -4.71,-10.5 -10.5,-10.5 z m -4.5,30 h -15 v -15 h 15 z" />
    <path
       style="fill:#9ca2a7;fill-opacity:1"
       id="path22"
       d="m 145.5,424.845 h -24 c -5.79,0 -10.5,4.71 -10.5,10.5 v 24 c 0,5.79 4.71,10.5 10.5,10.5 h 24 c 5.79,0 10.5,-4.71 10.5,-10.5 v -24 c 0,-5.79 -4.71,-10.5 -10.5,-10.5 z m -4.5,30 h -15 v -15 h 15 z" />
    <path
       style="fill:#9ca2a7;fill-opacity:1"
       id="path24"
       d="m 205.5,424.845 h -24 c -5.79,0 -10.5,4.71 -10.5,10.5 v 24 c 0,5.79 4.71,10.5 10.5,10.5 h 24 c 5.79,0 10.5,-4.71 10.5,-10.5 v -24 c 0,-5.79 -4.71,-10.5 -10.5,-10.5 z m -4.5,30 h -15 v -15 h 15 z" />
    <path
       style="fill:#9ca2a7;fill-opacity:1"
       id="path26"
       d="m 265.5,424.845 h -24 c -5.79,0 -10.5,4.71 -10.5,10.5 v 24 c 0,5.79 4.71,10.5 10.5,10.5 h 24 c 5.79,0 10.5,-4.71 10.5,-10.5 v -24 c 0,-5.79 -4.71,-10.5 -10.5,-10.5 z m -4.5,30 h -15 v -15 h 15 z" />
    <path
       style="fill:#9ca2a7;fill-opacity:1"
       id="path28"
       d="m 341,315.345 c 0,-5.79 -4.71,-10.5 -10.5,-10.5 h -29 c -5.79,0 -10.5,4.71 -10.5,10.5 v 24 c 0,5.79 4.71,10.5 10.5,10.5 h 29 c 5.79,0 10.5,-4.71 10.5,-10.5 z m -15,19.5 h -20 v -15 h 20 z" />
    <path
       style="fill:#9ca2a7;fill-opacity:1"
       id="path30"
       d="m 330.5,364.845 h -29 c -5.79,0 -10.5,4.71 -10.5,10.5 v 84 c 0,5.79 4.71,10.5 10.5,10.5 h 29 c 5.79,0 10.5,-4.71 10.5,-10.5 v -84 c 0,-5.79 -4.71,-10.5 -10.5,-10.5 z m -4.5,90 h -20 v -75 h 20 z" />
    <path
       style="fill:#9ca2a7;fill-opacity:1"
       id="path32"
       d="M 393.5,120.559 H 371 V 74.5 C 371,51.065 351.935,32 328.5,32 H 308 V 22.5 C 308,10.094 297.906,0 285.5,0 h -119 C 154.094,0 144,10.094 144,22.5 V 32 H 123.5 C 100.065,32 81,51.065 81,74.5 v 395 c 0,23.435 19.065,42.5 42.5,42.5 h 128.309 c 4.143,0 7.5,-3.357 7.5,-7.5 0,-4.143 -3.357,-7.5 -7.5,-7.5 H 123.5 C 108.337,497 96,484.663 96,469.5 V 74.5 C 96,59.337 108.337,47 123.5,47 H 144 v 18.554 c 0,4.143 3.357,7.5 7.5,7.5 4.143,0 7.5,-3.357 7.5,-7.5 V 22.5 c 0,-4.136 3.364,-7.5 7.5,-7.5 h 119 c 4.136,0 7.5,3.364 7.5,7.5 V 121 H 159 v -20.724 c 0,-4.143 -3.357,-7.5 -7.5,-7.5 -4.143,0 -7.5,3.357 -7.5,7.5 V 121 h -25.5 c -4.143,0 -7.5,3.357 -7.5,7.5 0,4.143 3.357,7.5 7.5,7.5 h 215 c 4.143,0 7.5,-3.357 7.5,-7.5 0,-4.143 -3.357,-7.5 -7.5,-7.5 H 308 V 47 h 20.5 c 15.163,0 27.5,12.337 27.5,27.5 v 395 c 0,15.163 -12.337,27.5 -27.5,27.5 h -41.883 c -4.143,0 -7.5,3.357 -7.5,7.5 0,4.143 3.357,7.5 7.5,7.5 H 328.5 c 23.435,0 42.5,-19.065 42.5,-42.5 v -8.941 h 22.5 c 20.678,0 37.5,-16.822 37.5,-37.5 v -265 c 0,-20.678 -16.822,-37.5 -37.5,-37.5 z m 22.5,302.5 c 0,9.777 -6.271,18.114 -15,21.21 V 261.383 c 0,-4.143 -3.357,-7.5 -7.5,-7.5 -4.143,0 -7.5,3.357 -7.5,7.5 v 184.176 h -15 v -310 h 15 v 90.846 c 0,4.143 3.357,7.5 7.5,7.5 4.143,0 7.5,-3.357 7.5,-7.5 v -89.556 c 8.729,3.096 15,11.433 15,21.21 z" />
  </g>
</svg>
