<svg xmlns="http://www.w3.org/2000/svg" width="160" height="160" viewbox="0 0 160 160" preserveAspectRatio="none"><rect x="0" y="0" width="100%" height="100%" fill="rgb(60, 147, 81)" /><polyline points="8.8,0,17.866666666667,0,26.666666666667,8.8,26.666666666667,17.866666666667,17.866666666667,26.666666666667,8.8,26.666666666667,0,17.866666666667,0,8.8,8.8,0" fill="#222" fill-opacity="0.063333333333333" stroke="#000" stroke-opacity="0.02" transform="translate(0, 0)" /><polyline points="8.8,0,17.866666666667,0,26.666666666667,8.8,26.666666666667,17.866666666667,17.866666666667,26.666666666667,8.8,26.666666666667,0,17.866666666667,0,8.8,8.8,0" fill="#222" fill-opacity="0.080666666666667" stroke="#000" stroke-opacity="0.02" transform="translate(26.666666666667, 0)" /><polyline points="8.8,0,17.866666666667,0,26.666666666667,8.8,26.666666666667,17.866666666667,17.866666666667,26.666666666667,8.8,26.666666666667,0,17.866666666667,0,8.8,8.8,0" fill="#ddd" fill-opacity="0.02" stroke="#000" stroke-opacity="0.02" transform="translate(53.333333333333, 0)" /><polyline points="8.8,0,17.866666666667,0,26.666666666667,8.8,26.666666666667,17.866666666667,17.866666666667,26.666666666667,8.8,26.666666666667,0,17.866666666667,0,8.8,8.8,0" fill="#222" fill-opacity="0.028666666666667" stroke="#000" stroke-opacity="0.02" transform="translate(80, 0)" /><polyline points="8.8,0,17.866666666667,0,26.666666666667,8.8,26.666666666667,17.866666666667,17.866666666667,26.666666666667,8.8,26.666666666667,0,17.866666666667,0,8.8,8.8,0" fill="#ddd" fill-opacity="0.089333333333333" stroke="#000" stroke-opacity="0.02" transform="translate(106.66666666667, 0)" /><polyline points="8.8,0,17.866666666667,0,26.666666666667,8.8,26.666666666667,17.866666666667,17.866666666667,26.666666666667,8.8,26.666666666667,0,17.866666666667,0,8.8,8.8,0" fill="#ddd" fill-opacity="0.089333333333333" stroke="#000" stroke-opacity="0.02" transform="translate(133.33333333333, 0)" /><polyline points="8.8,0,17.866666666667,0,26.666666666667,8.8,26.666666666667,17.866666666667,17.866666666667,26.666666666667,8.8,26.666666666667,0,17.866666666667,0,8.8,8.8,0" fill="#222" fill-opacity="0.098" stroke="#000" stroke-opacity="0.02" transform="translate(0, 26.666666666667)" /><polyline points="8.8,0,17.866666666667,0,26.666666666667,8.8,26.666666666667,17.866666666667,17.866666666667,26.666666666667,8.8,26.666666666667,0,17.866666666667,0,8.8,8.8,0" fill="#ddd" fill-opacity="0.02" stroke="#000" stroke-opacity="0.02" transform="translate(26.666666666667, 26.666666666667)" /><polyline points="8.8,0,17.866666666667,0,26.666666666667,8.8,26.666666666667,17.866666666667,17.866666666667,26.666666666667,8.8,26.666666666667,0,17.866666666667,0,8.8,8.8,0" fill="#ddd" fill-opacity="0.02" stroke="#000" stroke-opacity="0.02" transform="translate(53.333333333333, 26.666666666667)" /><polyline points="8.8,0,17.866666666667,0,26.666666666667,8.8,26.666666666667,17.866666666667,17.866666666667,26.666666666667,8.8,26.666666666667,0,17.866666666667,0,8.8,8.8,0" fill="#ddd" fill-opacity="0.037333333333333" stroke="#000" stroke-opacity="0.02" transform="translate(80, 26.666666666667)" /><polyline points="8.8,0,17.866666666667,0,26.666666666667,8.8,26.666666666667,17.866666666667,17.866666666667,26.666666666667,8.8,26.666666666667,0,17.866666666667,0,8.8,8.8,0" fill="#222" fill-opacity="0.098" stroke="#000" stroke-opacity="0.02" transform="translate(106.66666666667, 26.666666666667)" /><polyline points="8.8,0,17.866666666667,0,26.666666666667,8.8,26.666666666667,17.866666666667,17.866666666667,26.666666666667,8.8,26.666666666667,0,17.866666666667,0,8.8,8.8,0" fill="#ddd" fill-opacity="0.10666666666667" stroke="#000" stroke-opacity="0.02" transform="translate(133.33333333333, 26.666666666667)" /><polyline points="8.8,0,17.866666666667,0,26.666666666667,8.8,26.666666666667,17.866666666667,17.866666666667,26.666666666667,8.8,26.666666666667,0,17.866666666667,0,8.8,8.8,0" fill="#222" fill-opacity="0.063333333333333" stroke="#000" stroke-opacity="0.02" transform="translate(0, 53.333333333333)" /><polyline points="8.8,0,17.866666666667,0,26.666666666667,8.8,26.666666666667,17.866666666667,17.866666666667,26.666666666667,8.8,26.666666666667,0,17.866666666667,0,8.8,8.8,0" fill="#ddd" fill-opacity="0.124" stroke="#000" stroke-opacity="0.02" transform="translate(26.666666666667, 53.333333333333)" /><polyline points="8.8,0,17.866666666667,0,26.666666666667,8.8,26.666666666667,17.866666666667,17.866666666667,26.666666666667,8.8,26.666666666667,0,17.866666666667,0,8.8,8.8,0" fill="#ddd" fill-opacity="0.10666666666667" stroke="#000" stroke-opacity="0.02" transform="translate(53.333333333333, 53.333333333333)" /><polyline points="8.8,0,17.866666666667,0,26.666666666667,8.8,26.666666666667,17.866666666667,17.866666666667,26.666666666667,8.8,26.666666666667,0,17.866666666667,0,8.8,8.8,0" fill="#ddd" fill-opacity="0.02" stroke="#000" stroke-opacity="0.02" transform="translate(80, 53.333333333333)" /><polyline points="8.8,0,17.866666666667,0,26.666666666667,8.8,26.666666666667,17.866666666667,17.866666666667,26.666666666667,8.8,26.666666666667,0,17.866666666667,0,8.8,8.8,0" fill="#222" fill-opacity="0.063333333333333" stroke="#000" stroke-opacity="0.02" transform="translate(106.66666666667, 53.333333333333)" /><polyline points="8.8,0,17.866666666667,0,26.666666666667,8.8,26.666666666667,17.866666666667,17.866666666667,26.666666666667,8.8,26.666666666667,0,17.866666666667,0,8.8,8.8,0" fill="#ddd" fill-opacity="0.02" stroke="#000" stroke-opacity="0.02" transform="translate(133.33333333333, 53.333333333333)" /><polyline points="8.8,0,17.866666666667,0,26.666666666667,8.8,26.666666666667,17.866666666667,17.866666666667,26.666666666667,8.8,26.666666666667,0,17.866666666667,0,8.8,8.8,0" fill="#ddd" fill-opacity="0.072" stroke="#000" stroke-opacity="0.02" transform="translate(0, 80)" /><polyline points="8.8,0,17.866666666667,0,26.666666666667,8.8,26.666666666667,17.866666666667,17.866666666667,26.666666666667,8.8,26.666666666667,0,17.866666666667,0,8.8,8.8,0" fill="#ddd" fill-opacity="0.14133333333333" stroke="#000" stroke-opacity="0.02" transform="translate(26.666666666667, 80)" /><polyline points="8.8,0,17.866666666667,0,26.666666666667,8.8,26.666666666667,17.866666666667,17.866666666667,26.666666666667,8.8,26.666666666667,0,17.866666666667,0,8.8,8.8,0" fill="#ddd" fill-opacity="0.02" stroke="#000" stroke-opacity="0.02" transform="translate(53.333333333333, 80)" /><polyline points="8.8,0,17.866666666667,0,26.666666666667,8.8,26.666666666667,17.866666666667,17.866666666667,26.666666666667,8.8,26.666666666667,0,17.866666666667,0,8.8,8.8,0" fill="#222" fill-opacity="0.063333333333333" stroke="#000" stroke-opacity="0.02" transform="translate(80, 80)" /><polyline points="8.8,0,17.866666666667,0,26.666666666667,8.8,26.666666666667,17.866666666667,17.866666666667,26.666666666667,8.8,26.666666666667,0,17.866666666667,0,8.8,8.8,0" fill="#222" fill-opacity="0.028666666666667" stroke="#000" stroke-opacity="0.02" transform="translate(106.66666666667, 80)" /><polyline points="8.8,0,17.866666666667,0,26.666666666667,8.8,26.666666666667,17.866666666667,17.866666666667,26.666666666667,8.8,26.666666666667,0,17.866666666667,0,8.8,8.8,0" fill="#ddd" fill-opacity="0.14133333333333" stroke="#000" stroke-opacity="0.02" transform="translate(133.33333333333, 80)" /><polyline points="8.8,0,17.866666666667,0,26.666666666667,8.8,26.666666666667,17.866666666667,17.866666666667,26.666666666667,8.8,26.666666666667,0,17.866666666667,0,8.8,8.8,0" fill="#ddd" fill-opacity="0.10666666666667" stroke="#000" stroke-opacity="0.02" transform="translate(0, 106.66666666667)" /><polyline points="8.8,0,17.866666666667,0,26.666666666667,8.8,26.666666666667,17.866666666667,17.866666666667,26.666666666667,8.8,26.666666666667,0,17.866666666667,0,8.8,8.8,0" fill="#222" fill-opacity="0.028666666666667" stroke="#000" stroke-opacity="0.02" transform="translate(26.666666666667, 106.66666666667)" /><polyline points="8.8,0,17.866666666667,0,26.666666666667,8.8,26.666666666667,17.866666666667,17.866666666667,26.666666666667,8.8,26.666666666667,0,17.866666666667,0,8.8,8.8,0" fill="#222" fill-opacity="0.15" stroke="#000" stroke-opacity="0.02" transform="translate(53.333333333333, 106.66666666667)" /><polyline points="8.8,0,17.866666666667,0,26.666666666667,8.8,26.666666666667,17.866666666667,17.866666666667,26.666666666667,8.8,26.666666666667,0,17.866666666667,0,8.8,8.8,0" fill="#222" fill-opacity="0.046" stroke="#000" stroke-opacity="0.02" transform="translate(80, 106.66666666667)" /><polyline points="8.8,0,17.866666666667,0,26.666666666667,8.8,26.666666666667,17.866666666667,17.866666666667,26.666666666667,8.8,26.666666666667,0,17.866666666667,0,8.8,8.8,0" fill="#222" fill-opacity="0.098" stroke="#000" stroke-opacity="0.02" transform="translate(106.66666666667, 106.66666666667)" /><polyline points="8.8,0,17.866666666667,0,26.666666666667,8.8,26.666666666667,17.866666666667,17.866666666667,26.666666666667,8.8,26.666666666667,0,17.866666666667,0,8.8,8.8,0" fill="#222" fill-opacity="0.063333333333333" stroke="#000" stroke-opacity="0.02" transform="translate(133.33333333333, 106.66666666667)" /><polyline points="8.8,0,17.866666666667,0,26.666666666667,8.8,26.666666666667,17.866666666667,17.866666666667,26.666666666667,8.8,26.666666666667,0,17.866666666667,0,8.8,8.8,0" fill="#222" fill-opacity="0.11533333333333" stroke="#000" stroke-opacity="0.02" transform="translate(0, 133.33333333333)" /><polyline points="8.8,0,17.866666666667,0,26.666666666667,8.8,26.666666666667,17.866666666667,17.866666666667,26.666666666667,8.8,26.666666666667,0,17.866666666667,0,8.8,8.8,0" fill="#ddd" fill-opacity="0.072" stroke="#000" stroke-opacity="0.02" transform="translate(26.666666666667, 133.33333333333)" /><polyline points="8.8,0,17.866666666667,0,26.666666666667,8.8,26.666666666667,17.866666666667,17.866666666667,26.666666666667,8.8,26.666666666667,0,17.866666666667,0,8.8,8.8,0" fill="#222" fill-opacity="0.028666666666667" stroke="#000" stroke-opacity="0.02" transform="translate(53.333333333333, 133.33333333333)" /><polyline points="8.8,0,17.866666666667,0,26.666666666667,8.8,26.666666666667,17.866666666667,17.866666666667,26.666666666667,8.8,26.666666666667,0,17.866666666667,0,8.8,8.8,0" fill="#222" fill-opacity="0.11533333333333" stroke="#000" stroke-opacity="0.02" transform="translate(80, 133.33333333333)" /><polyline points="8.8,0,17.866666666667,0,26.666666666667,8.8,26.666666666667,17.866666666667,17.866666666667,26.666666666667,8.8,26.666666666667,0,17.866666666667,0,8.8,8.8,0" fill="#ddd" fill-opacity="0.037333333333333" stroke="#000" stroke-opacity="0.02" transform="translate(106.66666666667, 133.33333333333)" /><polyline points="8.8,0,17.866666666667,0,26.666666666667,8.8,26.666666666667,17.866666666667,17.866666666667,26.666666666667,8.8,26.666666666667,0,17.866666666667,0,8.8,8.8,0" fill="#ddd" fill-opacity="0.10666666666667" stroke="#000" stroke-opacity="0.02" transform="translate(133.33333333333, 133.33333333333)" /></svg>